<svg xmlns="http://www.w3.org/2000/svg" viewBox="0 0 1200 360" role="img" aria-labelledby="title desc">
  <title id="title">ggonny, Web Publisher</title>
  <desc id="desc">Web publisher specializing in accessible and responsive public-sector websites</desc>
  <style>
    .primary{fill:#172033}
    .secondary{fill:#667085}
    .line{stroke:#D7DEE8}
    .accent{fill:#16A6A1}
    .accent_line{stroke:#16A6A1}
    .code{stroke:#9AA7B8}
    @media (prefers-color-scheme:dark){
      .primary{fill:#F4F7FB}
      .secondary{fill:#AEB8C7}
      .line{stroke:#3B4658}
      .code{stroke:#748197}
    }
  </style>
  <line class="line" x1="60" y1="42" x2="1140" y2="42" stroke-width="1"/>
  <rect class="accent" x="68" y="75" width="34" height="3" rx="1.5"/>
  <text class="secondary" x="116" y="82" font-family="Inter, Pretendard, -apple-system, BlinkMacSystemFont, 'Segoe UI', sans-serif" font-size="15" font-weight="700" letter-spacing="5">WEB PUBLISHER</text>
  <text class="primary" x="65" y="184" font-family="Inter, Pretendard, -apple-system, BlinkMacSystemFont, 'Segoe UI', sans-serif" font-size="84" font-weight="750" letter-spacing="-3">ggonny</text>
  <text class="primary" x="70" y="230" font-family="Inter, Pretendard, -apple-system, BlinkMacSystemFont, 'Segoe UI', sans-serif" font-size="24" font-weight="600">Public-sector websites</text>
  <text class="secondary" x="70" y="270" font-family="Inter, Pretendard, -apple-system, BlinkMacSystemFont, 'Segoe UI', sans-serif" font-size="18">Accessible · Responsive · Maintainable</text>
  <g transform="translate(785 77)">
    <rect x="0" y="0" width="350" height="205" rx="16" fill="none" class="line" stroke-width="2"/>
    <line x1="0" y1="42" x2="350" y2="42" class="line" stroke-width="2"/>
    <circle cx="24" cy="21" r="5" fill="#38BDF8"/>
    <circle cx="43" cy="21" r="5" fill="#2DD4BF"/>
    <circle cx="62" cy="21" r="5" fill="#A7B4C6"/>
    <path d="M34 82h82M34 108h150M34 134h112M34 160h178" fill="none" class="code" stroke-width="8" stroke-linecap="round"/>
    <path d="M238 81l-19 25 19 25M286 81l19 25-19 25M270 70l-20 72" fill="none" class="accent_line" stroke-width="4" stroke-linecap="round" stroke-linejoin="round"/>
  </g>
  <line class="line" x1="60" y1="318" x2="1140" y2="318" stroke-width="1"/>
</svg>
